<?xml version="1.0" standalone="no"?><!DOCTYPE svg PUBLIC "-//W3C//DTD SVG 1.1//EN" "http://www.w3.org/Graphics/SVG/1.1/DTD/svg11.dtd"><svg t="1580833273268" class="icon" viewBox="0 0 1024 1024" version="1.1" xmlns="http://www.w3.org/2000/svg" p-id="19498" xmlns:xlink="http://www.w3.org/1999/xlink" width="200" height="200"><defs><style type="text/css"></style></defs><path d="M510.740671 511.618385m-508.819876 0a508.819876 508.819876 0 1 0 1017.639752 0 508.819876 508.819876 0 1 0-1017.639752 0Z" fill="#FE3D50" p-id="19499"></path><path d="M510.740671 511.618385m-355.442485 0a355.442484 355.442484 0 1 0 710.884969 0 355.442484 355.442484 0 1 0-710.884969 0Z" fill="#F8E71C" p-id="19500"></path><path d="M803.388422 802.020969H218.092919a50.881988 50.881988 0 0 1-50.881987-50.881988V374.065292a50.881988 50.881988 0 0 1 20.600844-40.896398L480.453168 116.449789a50.881988 50.881988 0 0 1 60.562285 0l292.647752 216.731826a50.881988 50.881988 0 0 1 20.607205 40.890037v377.07369a50.881988 50.881988 0 0 1-50.881988 50.881987z" fill="#E2E6E8" p-id="19501"></path><path d="M510.740671 590.313739l252.202931-158.758161V247.121093H258.537739v184.434485z" fill="#2283F6" p-id="19502"></path><path d="M289.613913 310.723578H423.147329v133.533416H289.613913zM443.245714 310.723578h133.533416v22.063702H443.245714zM443.245714 360.053665h288.615354v82.575105H443.245714zM289.613913 468.139727h129.691826v22.063702H289.613913zM443.245714 468.139727h290.319901v22.063702H443.245714zM443.245714 511.618385h290.319901v22.063702H443.245714z" fill="#2283F6" p-id="19503"></path><path d="M258.544099 412.474832v25.440994l252.196572 158.751801 252.202931-158.751801v-25.440994l-252.202931 158.751802z" fill="#51E4C2" p-id="19504"></path><path d="M854.27041 374.065292v377.073689a50.881988 50.881988 0 0 1-50.881988 50.881988H218.092919a50.881988 50.881988 0 0 1-50.881987-50.881988V374.065292l343.529739 216.248447 343.529739-216.248447z" fill="#FFFFFF" p-id="19505"></path><path d="M510.740671 590.313739l332.933565 191.825093M510.740671 590.313739l-332.933565 191.825093" fill="" p-id="19506"></path><path d="M566.990708 603.034236c0 7.193441-7.549615 12.834981-10.144596 19.093466-2.690385 6.487453-1.443776 15.792497-6.334808 20.677168-4.884671 4.891031-14.183354 3.644422-20.670807 6.334807-6.264845 2.594981-11.906385 10.144596-19.099826 10.144596s-12.841342-7.555975-19.093466-10.144596c-6.487453-2.690385-15.792497-1.443776-20.683528-6.334807-4.884671-4.884671-3.638062-14.189714-6.328447-20.670808-2.594981-6.264845-10.144596-11.906385-10.144596-19.099826 0-7.199801 7.549615-12.841342 10.144596-19.099826 2.690385-6.487453 1.443776-15.786137 6.328447-20.670808 4.891031-4.897391 14.196075-3.644422 20.683528-6.334807 6.252124-2.594981 11.893665-10.144596 19.093466-10.144596 7.193441 0 12.841342 7.549615 19.093466 10.144596 6.487453 2.690385 15.792497 1.443776 20.683528 6.328447 4.884671 4.891031 3.638062 14.196075 6.328447 20.677168 2.594981 6.258484 10.144596 11.900025 10.144596 19.099826z" fill="#E2E6E8" p-id="19507"></path><path d="M566.990708 596.673988c0 7.193441-7.549615 12.834981-10.144596 19.093465-2.690385 6.487453-1.443776 15.792497-6.334808 20.677168-4.884671 4.891031-14.183354 3.644422-20.670807 6.334808-6.264845 2.594981-11.906385 10.144596-19.099826 10.144596s-12.841342-7.555975-19.093466-10.144596c-6.487453-2.690385-15.792497-1.443776-20.683528-6.334808-4.884671-4.884671-3.638062-14.189714-6.328447-20.670807-2.594981-6.264845-10.144596-11.906385-10.144596-19.099826 0-7.199801 7.549615-12.841342 10.144596-19.099827 2.690385-6.487453 1.443776-15.786137 6.328447-20.670807 4.891031-4.897391 14.196075-3.644422 20.683528-6.334807 6.252124-2.594981 11.893665-10.144596 19.093466-10.144597 7.193441 0 12.841342 7.549615 19.093466 10.144597 6.487453 2.690385 15.792497 1.443776 20.683528 6.328447 4.884671 4.891031 3.638062 14.196075 6.328447 20.677167 2.594981 6.258484 10.144596 11.900025 10.144596 19.099827z" fill="#51E4C2" p-id="19508"></path><path d="M510.740671 596.673988m-37.741714 0a37.741714 37.741714 0 1 0 75.483428 0 37.741714 37.741714 0 1 0-75.483428 0Z" fill="#51E4C2" p-id="19509"></path></svg>